<svg width="0" height="0" class="hidden">
  <symbol xmlns="http://www.w3.org/2000/svg" viewBox="0 0 24 24" id="redeem">
    <path d="M0 0h24v24H0V0z" fill="none"></path>
    <path
      d="M20 6h-2.18c.11-.31.18-.65.18-1 0-1.66-1.34-3-3-3-1.05 0-1.96.54-2.5 1.35l-.5.67-.5-.68C10.96 2.54 10.05 2 9 2 7.34 2 6 3.34 6 5c0 .35.07.69.18 1H4c-1.11 0-1.99.89-1.99 2L2 19c0 1.11.89 2 2 2h16c1.11 0 2-.89 2-2V8c0-1.11-.89-2-2-2zm-5-2c.55 0 1 .45 1 1s-.45 1-1 1-1-.45-1-1 .45-1 1-1zM9 4c.55 0 1 .45 1 1s-.45 1-1 1-1-.45-1-1 .45-1 1-1zm11 15H4v-2h16v2zm0-5H4V8h5.08L7 10.83 8.62 12 11 8.76l1-1.36 1 1.36L15.38 12 17 10.83 14.92 8H20v6z">
    </path>
  </symbol>
  <symbol xmlns="http://www.w3.org/2000/svg" viewBox="0 0 24 24" id="restaurant">
    <path d="M0 0h24v24H0V0z" fill="none"></path>
    <path
      d="M8.1 13.34l2.83-2.83L3.91 3.5c-1.56 1.56-1.56 4.09 0 5.66l4.19 4.18zm6.78-1.81c1.53.71 3.68.21 5.27-1.38 1.91-1.91 2.28-4.65.81-6.12-1.46-1.46-4.2-1.1-6.12.81-1.59 1.59-2.09 3.74-1.38 5.27L3.7 19.87l1.41 1.41L12 14.41l6.88 6.88 1.41-1.41L13.41 13l1.47-1.47z">
    </path>
  </symbol>
  <symbol xmlns="http://www.w3.org/2000/svg" enable-background="new 0 0 24 24" viewBox="0 0 24 24" id="savings">
    <rect fill="none" height="24" width="24"></rect>
    <g>
      <path
        d="M15,10c0-0.55,0.45-1,1-1s1,0.45,1,1c0,0.55-0.45,1-1,1S15,10.55,15,10z M8,9h5V7H8V9z M22,7.5v6.97l-2.82,0.94L17.5,21 L12,21v-2h-2v2l-5.5,0C4.5,21,2,12.54,2,9.5S4.46,4,7.5,4l5,0c0.91-1.21,2.36-2,4-2C17.33,2,18,2.67,18,3.5 c0,0.21-0.04,0.4-0.12,0.58c-0.14,0.34-0.26,0.73-0.32,1.15l2.27,2.27H22z M20,9.5h-1L15.5,6c0-0.65,0.09-1.29,0.26-1.91 C14.79,4.34,14,5.06,13.67,6L7.5,6C5.57,6,4,7.57,4,9.5c0,1.88,1.22,6.65,2.01,9.5L8,19v-2h6v2l2.01,0l1.55-5.15L20,13.03V9.5z">
      </path>
    </g>
  </symbol>
  <symbol xmlns="http://www.w3.org/2000/svg" viewBox="0 0 24 24" id="school">
    <path d="M0 0h24v24H0V0z" fill="none"></path>
    <path
      d="M12 3L1 9l4 2.18v6L12 21l7-3.82v-6l2-1.09V17h2V9L12 3zm6.82 6L12 12.72 5.18 9 12 5.28 18.82 9zM17 15.99l-5 2.73-5-2.73v-3.72L12 15l5-2.73v3.72z">
    </path>
  </symbol>
  <symbol xmlns="http://www.w3.org/2000/svg" viewBox="0 0 24 24" id="shopping-cart">
    <path d=" M0 0h24v24H0V0z" fill="none">
    </path>
    <path
      d="M15.55 13c.75 0 1.41-.41 1.75-1.03l3.58-6.49c.37-.66-.11-1.48-.87-1.48H5.21l-.94-2H1v2h2l3.6 7.59-1.35 2.44C4.52 15.37 5.48 17 7 17h12v-2H7l1.1-2h7.45zM6.16 6h12.15l-2.76 5H8.53L6.16 6zM7 18c-1.1 0-1.99.9-1.99 2S5.9 22 7 22s2-.9 2-2-.9-2-2-2zm10 0c-1.1 0-1.99.9-1.99 2s.89 2 1.99 2 2-.9 2-2-.9-2-2-2z">
    </path>
  </symbol>
  <symbol xmlns="http://www.w3.org/2000/svg" enable-background="new 0 0 24 24" viewBox="0 0 24 24" id="smart-display">
    <g>
      <rect fill="none" height="24" width="24" y="0"></rect>
    </g>
    <g>
      <g>
        <polygon points="9.5,7.5 9.5,16.5 16.5,12"></polygon>
        <path
          d="M20,4H4C2.9,4,2,4.9,2,6v12c0,1.1,0.9,2,2,2h16c1.1,0,2-0.9,2-2V6C22,4.9,21.1,4,20,4z M20,18.01H4V5.99h16V18.01z">
        </path>
      </g>
    </g>
  </symbol>
  <symbol id="account-balance" xmlns="http://www.w3.org/2000/svg" viewBox="0 0 24 24">
    <path d="M0 0h24v24H0V0z" fill="none"></path>
    <path
      d="M6.5 10h-2v7h2v-7zm6 0h-2v7h2v-7zm8.5 9H2v2h19v-2zm-2.5-9h-2v7h2v-7zm-7-6.74L16.71 6H6.29l5.21-2.74m0-2.26L2 6v2h19V6l-9.5-5z">
    </path>
  </symbol>
  <symbol xmlns="http://www.w3.org/2000/svg" viewBox="0 0 24 24" id="add">
    <path d="M0 0h24v24H0V0z" fill="none"></path>
    <path d="M19 13h-6v6h-2v-6H5v-2h6V5h2v6h6v2z"></path>
  </symbol>
  <symbol xmlns="http://www.w3.org/2000/svg" viewBox="0 0 24 24" id="bar-chart">
    <path d="M0 0h24v24H0V0z" fill="none"></path>
    <path d="M5 9.2h3V19H5V9.2zM10.6 5h2.8v14h-2.8V5zm5.6 8H19v6h-2.8v-6z"></path>
  </symbol>
  <symbol xmlns="http://www.w3.org/2000/svg" viewBox="0 0 24 24" id="build">
    <path d="M0 0h24v24H0V0z" fill="none"></path>
    <path
      d="M22.61 18.99l-9.08-9.08c.93-2.34.45-5.1-1.44-7C9.79.61 6.21.4 3.66 2.26L7.5 6.11 6.08 7.52 2.25 3.69C.39 6.23.6 9.82 2.9 12.11c1.86 1.86 4.57 2.35 6.89 1.48l9.11 9.11c.39.39 1.02.39 1.41 0l2.3-2.3c.4-.38.4-1.01 0-1.41zm-3 1.6l-9.46-9.46c-.61.45-1.29.72-2 .82-1.36.2-2.79-.21-3.83-1.25C3.37 9.76 2.93 8.5 3 7.26l3.09 3.09 4.24-4.24-3.09-3.09c1.24-.07 2.49.37 3.44 1.31 1.08 1.08 1.49 2.57 1.24 3.96-.12.71-.42 1.37-.88 1.96l9.45 9.45-.88.89z">
    </path>
  </symbol>
  <symbol xmlns="http://www.w3.org/2000/svg" viewBox="0 0 24 24" id="credit-card">
    <path d="M0 0h24v24H0V0z" fill="none"></path>
    <path
      d="M20 4H4c-1.11 0-1.99.89-1.99 2L2 18c0 1.11.89 2 2 2h16c1.11 0 2-.89 2-2V6c0-1.11-.89-2-2-2zm0 14H4v-6h16v6zm0-10H4V6h16v2z">
    </path>
  </symbol>
  <symbol xmlns="http://www.w3.org/2000/svg" enable-background="new 0 0 24 24" viewBox="0 0 24 24" id="transportation">
    <g>
      <rect fill="none" height="24" width="24"></rect>
    </g>
    <g>
      <g></g>
      <g>
        <path
          d="M20.57,10.66C20.43,10.26,20.05,10,19.6,10h-7.19c-0.46,0-0.83,0.26-0.98,0.66L10,14.77l0.01,5.51 c0,0.38,0.31,0.72,0.69,0.72h0.62C11.7,21,12,20.62,12,20.24V19h8v1.24c0,0.38,0.31,0.76,0.69,0.76h0.61 c0.38,0,0.69-0.34,0.69-0.72L22,18.91v-4.14L20.57,10.66z M12.41,11h7.19l1.03,3h-9.25L12.41,11z M12,17c-0.55,0-1-0.45-1-1 s0.45-1,1-1s1,0.45,1,1S12.55,17,12,17z M20,17c-0.55,0-1-0.45-1-1s0.45-1,1-1s1,0.45,1,1S20.55,17,20,17z">
        </path>
        <polygon points="14,9 15,9 15,3 7,3 7,8 2,8 2,21 3,21 3,9 8,9 8,4 14,4"></polygon>
        <rect height="2" width="2" x="5" y="11"></rect>
        <rect height="2" width="2" x="10" y="5"></rect>
        <rect height="2" width="2" x="5" y="15"></rect>
        <rect height="2" width="2" x="5" y="19"></rect>
      </g>
    </g>
  </symbol>
  <symbol xmlns="http://www.w3.org/2000/svg" viewBox="0 0 24 24" id="explore">
    <path d="M0 0h24v24H0V0z" fill="none"></path>
    <path
      d="M12 2C6.48 2 2 6.48 2 12s4.48 10 10 10 10-4.48 10-10S17.52 2 12 2zm0 18c-4.41 0-8-3.59-8-8s3.59-8 8-8 8 3.59 8 8-3.59 8-8 8zm-5.5-2.5l7.51-3.49L17.5 6.5 9.99 9.99 6.5 17.5zm5.5-6.6c.61 0 1.1.49 1.1 1.1s-.49 1.1-1.1 1.1-1.1-.49-1.1-1.1.49-1.1 1.1-1.1z">
    </path>
  </symbol>
  <symbol xmlns="http://www.w3.org/2000/svg" enable-background="new 0 0 24 24" viewBox="0 0 24 24" id="health">
    <rect fill="none" height="24" width="24"></rect>
    <path
      d="M10.5,13H8v-3h2.5V7.5h3V10H16v3h-2.5v2.5h-3V13z M12,2L4,5v6.09c0,5.05,3.41,9.76,8,10.91c4.59-1.15,8-5.86,8-10.91V5L12,2 z M18,11.09c0,4-2.55,7.7-6,8.83c-3.45-1.13-6-4.82-6-8.83v-4.7l6-2.25l6,2.25V11.09z">
    </path>
  </symbol>
  <symbol xmlns="http://www.w3.org/2000/svg" viewBox="0 0 24 24" id="local-mall">
    <path d="M0 0h24v24H0V0z" fill="none"></path>
    <path
      d="M19 6h-2c0-2.76-2.24-5-5-5S7 3.24 7 6H5c-1.1 0-2 .9-2 2v12c0 1.1.9 2 2 2h14c1.1 0 2-.9 2-2V8c0-1.1-.9-2-2-2zm-7-3c1.66 0 3 1.34 3 3H9c0-1.66 1.34-3 3-3zm7 17H5V8h14v12zm-7-8c-1.66 0-3-1.34-3-3H7c0 2.76 2.24 5 5 5s5-2.24 5-5h-2c0 1.66-1.34 3-3 3z">
    </path>
  </symbol>
</svg>